<svg id="Layer_1" data-name="Layer 1" xmlns="http://www.w3.org/2000/svg" viewBox="0 0 300 300"><defs><style>.cls-1{opacity:0;}.cls-2{fill:#fff;}.cls-3{fill:#f26122;}.cls-4{fill:#ea1d25;}.cls-5{fill:#f69e1e;}</style></defs><g class="cls-1"><rect class="cls-2" x="36.17" y="74.71" width="227.66" height="150.57"/></g><rect class="cls-3" x="119.98" y="100.95" width="60.06" height="98.09"/><path class="cls-4" d="M126.17,150A62.28,62.28,0,0,1,150,101a62.38,62.38,0,1,0,0,98.09A62.27,62.27,0,0,1,126.17,150Z"/><path class="cls-5" d="M245,188.66v-2h.87v-.42h-2.06v.42h.81v2Zm4,0v-2.43h-.62l-.73,1.73-.73-1.73h-.62v2.43h.45v-1.84l.68,1.58h.46l.68-1.58v1.84Z"/><path class="cls-5" d="M250.92,150A62.38,62.38,0,0,1,150,199,62.38,62.38,0,0,0,150,101a62.37,62.37,0,0,1,100.93,49Z"/></svg>