<svg xmlns="http://www.w3.org/2000/svg" width="189.629" height="116.048" viewBox="0 0 189.629 116.048"><defs><style>.a{fill:rgba(39,110,241,0.38);}.b{fill:rgba(39,110,241,0.12);opacity:0.51;}.c,.d{fill:#276ef1;}.c{opacity:0.077;}</style></defs><path class="a" d="M133.973,118.209c0-.243.081-.566.081-.89a10.845,10.845,0,0,0-10.844-10.844,10.574,10.574,0,0,0-6.8,2.428,16.5,16.5,0,0,0-14.567-8.9A16.3,16.3,0,0,0,85.5,116.348a14.327,14.327,0,0,0,.081,1.861,13.263,13.263,0,0,0,1.295,26.464h46.453a13.239,13.239,0,0,0,.647-26.464Z" transform="translate(-15.284 -64.312)"/><path class="b" d="M164.068,127.286c0-.364.121-.849.121-1.334a16.251,16.251,0,0,0-16.25-16.25,15.844,15.844,0,0,0-10.187,3.638A24.722,24.722,0,0,0,115.924,100a24.429,24.429,0,0,0-24.5,24.5,21.469,21.469,0,0,0,.121,2.789,19.875,19.875,0,0,0,1.94,39.656H163.1a19.838,19.838,0,0,0,.97-39.656Z" transform="translate(-33.478 -75.447)"/><path class="c" d="M230.433,147.3c0-.631.21-1.472.21-2.313a28.173,28.173,0,0,0-28.171-28.171,27.468,27.468,0,0,0-17.659,6.307A42.857,42.857,0,0,0,146.971,100,42.349,42.349,0,0,0,104.5,142.467a37.215,37.215,0,0,0,.21,4.835,34.454,34.454,0,0,0,3.364,68.746H228.751a34.392,34.392,0,0,0,1.682-68.746Z" transform="translate(-73.6 -100)"/><path class="d" d="M206.263,227.314H197.6v14.324H185.059V227.314H176.4L191.372,210.4Z" transform="translate(-97.285 -152.375)"/><path class="d" d="M0,0H12.544V1.861H0Z" transform="translate(87.775 91.609)"/><path class="d" d="M0,0H12.544V1.861H0Z" transform="translate(87.775 96.141)"/></svg>