<svg id="Component_22_2" data-name="Component 22 – 2" xmlns="http://www.w3.org/2000/svg" width="50" height="40" viewBox="0 0 50 40">
  <g id="ic_account_balance_24px" transform="translate(12 -1)" fill="none">
    <path d="M17.158,18.143V31.476h5.684V18.143ZM2,41H38V35.286H2ZM28.526,18.143V31.476h5.684V18.143ZM20,1,2,10.524v3.81H38v-3.81Z" stroke="none"/>
    <path d="M 19.99999809265137 3.2626953125 L 3.999996185302734 11.72830390930176 L 3.999996185302734 12.33333015441895 L 36 12.33333015441895 L 36 11.72830390930176 L 19.99999809265137 3.2626953125 M 19.15789794921875 20.14286041259766 L 19.15789794921875 29.47618865966797 L 20.84210777282715 29.47618865966797 L 20.84210777282715 20.14286041259766 L 19.15789794921875 20.14286041259766 M 30.52631759643555 20.14286041259766 L 30.52631759643555 29.47618865966797 L 32.21051788330078 29.47618865966797 L 32.21051788330078 20.14286041259766 L 30.52631759643555 20.14286041259766 M 3.999996185302734 37.28570938110352 L 3.999996185302734 39 L 36 39 L 36 37.28570938110352 L 3.999996185302734 37.28570938110352 M 19.99999809265137 1 L 38 10.5238094329834 L 38 14.33333015441895 L 1.999996185302734 14.33333015441895 L 1.999996185302734 10.5238094329834 L 19.99999809265137 1 Z M 17.15789794921875 18.14286041259766 L 22.84210777282715 18.14286041259766 L 22.84210777282715 31.47618865966797 L 17.15789794921875 31.47618865966797 L 17.15789794921875 18.14286041259766 Z M 28.52631759643555 18.14286041259766 L 34.21051788330078 18.14286041259766 L 34.21051788330078 31.47618865966797 L 28.52631759643555 31.47618865966797 L 28.52631759643555 18.14286041259766 Z M 1.999996185302734 35.28570938110352 L 38 35.28570938110352 L 38 41 L 1.999996185302734 41 L 1.999996185302734 35.28570938110352 Z" stroke="none" fill="#707070"/>
  </g>
  <path id="ic_credit_card_24px" d="M23.6,4H4.4A2.31,2.31,0,0,0,2.012,6.25L2,19.75A2.321,2.321,0,0,0,4.4,22H23.6A2.321,2.321,0,0,0,26,19.75V6.25A2.321,2.321,0,0,0,23.6,4Zm0,15.75H4.4V13H23.6Zm0-11.25H4.4V6.25H23.6Z" transform="translate(-2 11)" fill="#707070"/>
</svg>
