<svg xmlns="http://www.w3.org/2000/svg" xmlns:xlink="http://www.w3.org/1999/xlink" width="190" height="57" viewBox="15 0 220 57">
  <defs>
    <style>
      .a {
        fill: #fff;
      }
      .b {
        fill: #ef7622;
      }
      .c {
        fill: #231f20;
      }
      .d {
        fill: #fcb316;
      }
      .e {
        fill: #10357f;
      }
      .f {
        fill: #006fcf;
      }
      .g {
        fill: #ff5f00;
      }
      .h {
        fill: #eb001b;
      }
      .i {
        fill: #f79e1b;
      }
      .j {
        clip-path: url(#a);
      }
      .k {
        fill: url(#b);
      }
    </style>
    <clipPath id="a">
      <path d="M250.9,33.116a3.216,3.216,0,1,0,3.216-3.216,3.187,3.187,0,0,0-3.216,3.216" transform="translate(-250.9 -29.9)" />
    </clipPath>
    <linearGradient id="b" x1="-38.804" y1="9.241" x2="-38.776" y2="9.241" gradientUnits="objectBoundingBox">
      <stop offset="0" stop-color="#f59f00" />
      <stop offset="0.235" stop-color="#f49a01" />
      <stop offset="0.5" stop-color="#f28d04" />
      <stop offset="0.62" stop-color="#f18406" />
      <stop offset="0.755" stop-color="#ef7b09" />
      <stop offset="1" stop-color="#ed6f0d" />
    </linearGradient>
  </defs>
  <rect class="a" width="233" height="57" />
  <path class="b" d="M270.861,38.7S259.528,46.74,238.7,50.339h32.161Z" transform="translate(-55.919 -9.066)" />
  <path class="c" d="M268.133,19.3H226.4V46.1h41.886V19.3Zm-.153.306V45.795H226.706V19.606Z" transform="translate(-53.037 -4.521)" />
  <path
    class="c"
    d="M230.661,30H228.9v6.049h1.685a3.338,3.338,0,0,0,2.221-.689,2.871,2.871,0,0,0,1.072-2.3A2.993,2.993,0,0,0,230.967,30Zm1.378,4.594a2.1,2.1,0,0,1-1.608.459h-.306V31h.306a2.349,2.349,0,0,1,1.608.459,1.928,1.928,0,0,1,.689,1.531A1.978,1.978,0,0,1,232.04,34.594Z"
    transform="translate(-53.623 -7.028)"
  />
  <rect class="c" width="1.149" height="6.049" transform="translate(180.791 22.972)" />
  <path
    class="c"
    d="M240.627,32.225c-.689-.23-.919-.459-.919-.766a.84.84,0,0,1,.842-.689,1.092,1.092,0,0,1,.919.459l.613-.842a2.556,2.556,0,0,0-1.761-.689,1.8,1.8,0,0,0-1.914,1.685v.077c0,.842.383,1.3,1.455,1.685a4.1,4.1,0,0,1,.842.383.781.781,0,0,1,.383.613.85.85,0,0,1-.842.842h-.077a1.415,1.415,0,0,1-1.3-.842l-.766.766a2.378,2.378,0,0,0,2.144,1.149,1.963,1.963,0,0,0,2.068-1.838v-.153C242.388,33.221,242.005,32.761,240.627,32.225Z"
    transform="translate(-55.778 -6.956)"
  />
  <path
    class="c"
    d="M244.2,33.016a3.105,3.105,0,0,0,3.14,3.14h.077a3.167,3.167,0,0,0,1.455-.383V34.394a2.027,2.027,0,0,1-1.455.689,2.083,2.083,0,0,1-2.067-1.914v-.153a1.982,1.982,0,0,1,1.914-2.067h.077a1.778,1.778,0,0,1,1.455.689V30.183a3.1,3.1,0,0,0-4.594,2.833Z"
    transform="translate(-57.207 -6.981)"
  />
  <path class="c" d="M261.71,34.058,260.1,30h-1.3l2.527,6.2h.689l2.6-6.2h-1.3Z" transform="translate(-60.627 -7.028)" />
  <path
    class="c"
    d="M267.1,36.049h3.369v-1h-2.221V33.446h2.144V32.374h-2.144v-1.3h2.221V30H267.1Z"
    transform="translate(-62.572 -7.028)"
  />
  <path
    class="c"
    d="M276.405,31.761c0-1.149-.766-1.761-2.144-1.761H272.5v6.049h1.149V33.6h.153l1.608,2.45h1.455l-1.914-2.527A1.621,1.621,0,0,0,276.405,31.761Zm-2.374,1.072h-.383V31h.383q1.149,0,1.149.919T274.031,32.833Z"
    transform="translate(-63.837 -7.028)"
  />
  <path
    class="c"
    d="M278.583,30.353c0-.077-.077-.153-.23-.153H278.2v.536h.153v-.23l.153.23h.153l-.153-.23A.268.268,0,0,0,278.583,30.353Zm-.23.077h0v-.153h0c.077,0,.077,0,.077.077S278.43,30.43,278.353,30.43Z"
    transform="translate(-65.172 -7.075)"
  />
  <path
    class="c"
    d="M278.259,29.9a.459.459,0,1,0,.459.459h0a.441.441,0,0,0-.459-.459Zm0,.842a.383.383,0,1,1,.383-.383h0a.362.362,0,0,1-.383.383Z"
    transform="translate(-65.078 -7.004)"
  />
  <rect class="a" width="43.341" height="27.567" transform="translate(118.766 14.396)" />
  <rect class="d" width="41.886" height="3.752" transform="translate(119.532 37.445)" />
  <rect class="e" width="41.886" height="3.752" transform="translate(119.532 15.162)" />
  <path
    class="e"
    d="M174.158,30.053l-4.365,10.337H166.96l-2.144-8.27a1.135,1.135,0,0,0-.613-.919,11.456,11.456,0,0,0-2.6-.842l.077-.306h4.518a1.238,1.238,0,0,1,1.225,1.072l1.149,5.973,2.757-7.045Zm11.027,6.968c0-2.757-3.752-2.91-3.752-4.058,0-.383.383-.766,1.149-.842a4.951,4.951,0,0,1,2.6.459l.459-2.221a7.038,7.038,0,0,0-2.527-.459c-2.6,0-4.518,1.378-4.518,3.446,0,1.455,1.3,2.3,2.374,2.833s1.378.842,1.378,1.3c0,.689-.842,1-1.608,1a6.883,6.883,0,0,1-2.757-.613l-.459,2.3a7.934,7.934,0,0,0,2.986.536c2.833-.153,4.671-1.531,4.671-3.676m7.045,3.369h2.45l-2.144-10.337h-2.3a1.254,1.254,0,0,0-1.149.766l-3.982,9.572h2.833l.536-1.531h3.446Zm-2.986-3.676,1.378-3.905.842,3.905Zm-11.256-6.662-2.221,10.337h-2.68l2.221-10.337Z"
    transform="translate(-37.857 -7.004)"
  />
  <path class="a" d="M26.8,13.6V46.067H59.267V13.6H26.8Z" transform="translate(-6.278 -3.186)" />
  <path
    class="f"
    d="M53.448,21.564,54.52,18.73h4.748V13.6H26.8V46.067H59.267v-5.13H54.749l-1.685-1.914L51.38,40.937H38.669V30.676H34.457l5.284-11.869h5.13l1.225,2.68v-2.68h6.356l1,2.757Zm-3.522,1.914V22.329l.459,1.149,2.144,5.666H54.52l2.144-5.666.383-1.149v6.738h2.221V20.415H55.592L53.907,24.78,53.448,26l-.459-1.225L51.3,20.415H47.628v8.653h2.3v-5.59Zm-4.748,5.59H47.7l-3.829-8.653H40.89l-3.829,8.653h2.527l.689-1.685h4.212l.689,1.685ZM41.962,23.4l.459-1.072L42.88,23.4l.919,2.221h-2.68l.842-2.221ZM40.43,30.676v8.653h7.2V37.491H42.574V35.96h4.9V34.122h-4.9V32.59h5.054V30.753l-7.2-.077Zm15.315,8.576h2.833L54.52,34.964l4.058-4.288H55.745l-2.6,2.833-2.6-2.833h-2.91l4.058,4.365-4.058,4.288h2.757l2.6-2.833,2.757,2.757Zm1.072-4.288,2.45,2.527V32.514l-2.45,2.45Z"
    transform="translate(-6.278 -3.186)"
  />
  <g transform="translate(68.663 16.975)">
    <rect class="g" width="10.797" height="17.612" transform="translate(12.735 2.398)" />
    <path
      class="h"
      d="M103.476,33.372a11.291,11.291,0,0,1,4.288-8.806,11.182,11.182,0,1,0,0,17.612A11.291,11.291,0,0,1,103.476,33.372Z"
      transform="translate(-89.669 -22.169)"
    />
    <path
      class="i"
      d="M135.43,45.759v-.383h.153V45.3H135.2v.077h.153l.077.383Zm.766,0V45.3h-.077l-.153.306-.153-.306h-.077v.459h.077v-.306l.153.306h.077l.153-.306v.306Z"
      transform="translate(-100.335 -27.588)"
    />
    <path
      class="i"
      d="M131.371,33.372A11.183,11.183,0,0,1,113.3,42.178a11.182,11.182,0,0,0,0-17.612,11.179,11.179,0,0,1,18.071,8.806Z"
      transform="translate(-95.205 -22.169)"
    />
  </g>
  <g transform="translate(192.123 22.896)">
    <g class="j">
      <path class="k" d="M259.275,33.528,254.528,26.1,247.1,30.848l4.748,7.428Z" transform="translate(-250.01 -29.01)" />
    </g>
  </g>
</svg>
