<svg id="Layer_1" data-name="Layer 1" xmlns="http://www.w3.org/2000/svg" viewBox="0 0 300 300"><defs><style>.cls-1{fill:#fff;}.cls-2{fill:#004a98;}.cls-3{fill:#231f20;}</style></defs><path class="cls-1" d="M283.36,229.67a17.87,17.87,0,0,1-18.08,17.67H34.72a17.87,17.87,0,0,1-18.08-17.67V70.33A17.87,17.87,0,0,1,34.72,52.66H265.28a17.87,17.87,0,0,1,18.08,17.67Z"/><path class="cls-2" d="M18.17,70.33V229.67a16.37,16.37,0,0,0,16.55,16.14H265.28a16.37,16.37,0,0,0,16.55-16.14V70.33a16.36,16.36,0,0,0-16.55-16.14H34.72A16.36,16.36,0,0,0,18.17,70.33M34.72,248.87a19.42,19.42,0,0,1-19.61-19.2V70.33a19.42,19.42,0,0,1,19.61-19.2H265.28a19.42,19.42,0,0,1,19.61,19.2V229.67a19.42,19.42,0,0,1-19.61,19.2Z"/><path class="cls-3" d="M45.9,193.23c0,3.74,2.68,4.18,5.05,4.18,10.49,0,13.94-7.91,13.94-15.15,0-9.08-5.83-15.63-15.2-15.63-2,0-2.91.14-3.79.2Zm-4.76-22.77c0-4.36-2.28-4.08-4.46-4.12v-1.26c1.89.09,3.83.09,5.73.09s4.81-.09,8.4-.09c12.57,0,19.42,8.39,19.42,17,0,4.81-2.82,16.9-20,16.9-2.48,0-4.76-.1-7-.1s-4.33,0-6.51.1V197.7c2.91-.29,4.32-.39,4.46-3.69Z"/><path class="cls-3" d="M77.13,169.3a2.38,2.38,0,1,1,0-4.76,2.38,2.38,0,0,1,2.38,2.33,2.42,2.42,0,0,1-2.38,2.43m-5.2,28.4h.92c1.36,0,2.33,0,2.33-1.6V182.94c0-2.13-.72-2.43-2.52-3.4v-.77c2.28-.69,5-1.6,5.19-1.75a1.75,1.75,0,0,1,.88-.24c.24,0,.34.29.34.68V196.1c0,1.6,1.07,1.6,2.43,1.6h.82V199c-1.65,0-3.35-.1-5.1-.1s-3.49,0-5.29.1Z"/><path class="cls-3" d="M86.93,183.23c0-1.79-.53-2.27-2.81-3.2v-.92a67.14,67.14,0,0,0,6.41-2.33c.14,0,.28.09.28.48v3.16c2.78-2,5.15-3.64,8.41-3.64,4.12,0,5.58,3,5.58,6.79V196.1c0,1.6,1.07,1.6,2.43,1.6h.87V199c-1.7,0-3.4-.1-5.14-.1s-3.5,0-5.25.1V197.7h.88c1.36,0,2.32,0,2.32-1.6V183.53c0-2.77-1.69-4.13-4.46-4.13-1.55,0-4,1.26-5.64,2.33V196.1c0,1.6,1.08,1.6,2.44,1.6h.87V199c-1.7,0-3.4-.1-5.15-.1s-3.49,0-5.24.1V197.7h.88c1.35,0,2.32,0,2.32-1.6Z"/><path class="cls-3" d="M120.39,184c1.21,0,1.35-.63,1.35-1.22,0-2.47-1.5-4.46-4.22-4.46-3,0-5,2.18-5.58,5.68Zm-8.6,1.56a13.11,13.11,0,0,0,0,2.81c.29,4.61,3.26,8.4,7.14,8.4,2.67,0,4.76-1.46,6.55-3.25l.68.68c-2.23,3-5,5.49-9,5.49-7.72,0-9.27-7.49-9.27-10.59,0-9.52,6.41-12.33,9.8-12.33,3.94,0,8.16,2.47,8.21,7.62a5.08,5.08,0,0,1,0,.87l-.43.3Z"/><path class="cls-3" d="M127,197.7h1.31c1.35,0,2.33,0,2.33-1.6V182.46c0-1.5-1.8-1.8-2.53-2.19v-.73c3.55-1.5,5.49-2.76,5.93-2.76.29,0,.43.14.43.63v4.37h.11c1.21-1.89,3.25-5,6.21-5a2.64,2.64,0,0,1,2.76,2.57,2.35,2.35,0,0,1-2.27,2.48c-1.51,0-1.51-1.17-3.21-1.17a4.1,4.1,0,0,0-3.55,4V196.1c0,1.6,1,1.6,2.33,1.6h2.72V199c-2.67-.05-4.7-.1-6.79-.1s-4,0-5.78.1Z"/><path class="cls-3" d="M145.73,192.21c.63,3.21,2.57,5.93,6.12,5.93,2.86,0,3.93-1.75,3.93-3.45,0-5.73-10.58-3.88-10.58-11.7,0-2.72,2.18-6.21,7.52-6.21a12.74,12.74,0,0,1,5.53,1.41l.34,4.95h-1.11c-.49-3.06-2.18-4.81-5.29-4.81-1.95,0-3.79,1.12-3.79,3.21,0,5.68,11.26,3.93,11.26,11.55,0,3.2-2.57,6.61-8.35,6.61a12.8,12.8,0,0,1-5.92-1.66l-.54-5.58Z"/><path class="cls-3" d="M203.5,173.86h-1.21c-.92-5.67-4.95-8-10.39-8-5.59,0-13.69,3.74-13.69,15.39,0,9.81,7,16.85,14.47,16.85a9.87,9.87,0,0,0,9.76-8.4l1.12.29-1.12,7.09c-2,1.26-7.53,2.58-10.74,2.58-11.35,0-18.54-7.34-18.54-18.26,0-10,8.89-17.1,18.4-17.1,3.94,0,7.72,1.27,11.46,2.58Z"/><path class="cls-3" d="M205.26,197.7h.92c1.36,0,2.33,0,2.33-1.6v-27c0-3.16-.73-3.25-2.58-3.79v-.78a30.2,30.2,0,0,0,5-2.09,5.62,5.62,0,0,1,1.06-.53c.3,0,.39.29.39.68V196.1c0,1.6,1.07,1.6,2.43,1.6h.82V199c-1.64,0-3.34-.1-5.09-.1s-3.5,0-5.29.1Z"/><path class="cls-3" d="M236.43,196.29c0,.88.53.93,1.35.93.59,0,1.31-.05,1.95-.05v1a48,48,0,0,0-7,1.51l-.24-.15v-3.93c-2.91,2.37-5.14,4.08-8.6,4.08-2.62,0-5.33-1.71-5.33-5.78V181.49c0-1.27-.2-2.48-2.91-2.72v-.93c1.75,0,5.62-.33,6.26-.33s.54.33.54,1.41v12.52c0,1.46,0,5.63,4.22,5.63,1.65,0,3.83-1.26,5.87-3V181.05c0-1-2.33-1.51-4.07-2v-.87c4.36-.3,7.08-.68,7.57-.68s.39.33.39.87Z"/><path class="cls-3" d="M246.09,193.48a5.23,5.23,0,0,0,5,5c5.19,0,7.38-5.1,7.38-9.42,0-5.24-4-9.61-7.77-9.61-1.8,0-3.3,1.17-4.61,2.28Zm0-13.21c1.94-1.65,4.56-3.49,7.23-3.49,5.64,0,9,4.9,9,10.19,0,6.36-4.66,12.73-11.6,12.73A14.21,14.21,0,0,1,244,198l-1.45,1.12-1-.53a57.57,57.57,0,0,0,.68-8.65V169.06c0-3.16-.74-3.25-2.58-3.79v-.78a30.41,30.41,0,0,0,5-2.09,5.59,5.59,0,0,1,1.07-.53c.29,0,.39.3.39.68Z"/><path class="cls-3" d="M36.63,227.2H37c1,0,2-.13,2-1.51V211.85c0-1.38-1-1.51-2-1.51h-.37v-.79c1,0,2.61.1,3.91.1s2.9-.1,4.15-.1v.79h-.38c-.94,0-2,.13-2,1.51v13.84c0,1.38,1,1.51,2,1.51h.38V228c-1.27,0-2.86-.1-4.18-.1s-2.85.1-3.88.1Z"/><path class="cls-3" d="M44.57,227.88v-.57h-.25c-1,0-2.07-.16-2.08-1.62V211.85c0-1.46,1.13-1.62,2.08-1.62h.25v-.57c-1.22,0-2.75.11-4,.11s-2.77-.1-3.8-.11v.57H37c.94,0,2.06.16,2.06,1.62v13.84c0,1.46-1.12,1.62-2.06,1.62h-.26v.57c1,0,2.52-.11,3.77-.11s2.82.1,4.06.11m.12.22c-1.28,0-2.86-.1-4.18-.1s-2.84.1-3.88.1h-.12v-1H37c1,0,1.83-.1,1.84-1.39V211.85c0-1.29-.88-1.38-1.84-1.39h-.49v-1h.12c1,0,2.62.11,3.91.11s2.9-.11,4.15-.11h.11v1h-.48c-1,0-1.84.1-1.84,1.39v13.84c0,1.29.88,1.37,1.84,1.39h.48v1Z"/><path class="cls-3" d="M62.84,222.78l0-.05v-9.9a2.18,2.18,0,0,0-2.3-2.49H60v-.79c1.24,0,2.46.1,3.69.1s2.18-.1,3.25-.1v.79h-.39c-1.11,0-2.35.21-2.35,3.36v12a17.62,17.62,0,0,0,.15,2.67h-1l-13.6-15.17v10.89c0,2.3.44,3.09,2.48,3.09h.45V228c-1.14,0-2.27-.1-3.41-.1s-2.4.1-3.59.1v-.79h.37c1.82,0,2.37-1.25,2.37-3.35V212.72a2.37,2.37,0,0,0-2.4-2.38h-.34v-.79c1,0,2,.1,3,.1.8,0,1.56-.1,2.36-.1Z"/><path class="cls-3" d="M62.77,222.73h0l0,0Zm.07.05.08-.07Zm.52,5.49h.87a19,19,0,0,1-.14-2.55v-12c0-3.17,1.33-3.47,2.47-3.48h.28v-.56c-1,0-2.08.11-3.13.11-1.21,0-2.39-.1-3.58-.11v.56h.47A2.32,2.32,0,0,1,63,212.83l0,10,0,.06-.1.08L51.08,209.66c-.79,0-1.55.11-2.36.11-1,0-2-.1-2.92-.11v.56H46a2.5,2.5,0,0,1,2.52,2.5v11.13c0,2.11-.59,3.46-2.49,3.47H45.8v.57c1.15,0,2.33-.11,3.48-.11s2.2.1,3.29.11v-.56h-.33c-2.08,0-2.6-.92-2.6-3.21V212.92Zm1,.23-1.08,0L49.87,213.52v10.59c0,2.29.38,2.95,2.37,3h.56v1h-.11c-1.15,0-2.28-.1-3.41-.1s-2.4.1-3.59.1h-.12v-1h.49c1.74,0,2.24-1.13,2.26-3.23V212.72A2.25,2.25,0,0,0,46,210.46h-.46v-1h.12c1,0,2,.11,3,.11.79,0,1.55-.11,2.44-.07l11.61,13.07v-9.71c0-2.1-1.41-2.36-2.18-2.37h-.7v-1H60c1.25,0,2.46.11,3.7.11,1.07,0,2.15-.11,3.25-.11h.11v1h-.51c-1.09,0-2.21.12-2.24,3.24v12a17.24,17.24,0,0,0,.16,2.65l0,.13Z"/><path class="cls-3" d="M70.91,210.87c-2,0-2.06.48-2.45,2.4h-.8c.11-.74.24-1.48.32-2.24a15.15,15.15,0,0,0,.16-2.24h.63c.22.79.88.76,1.59.76H84c.72,0,1.37,0,1.43-.82l.63.11c-.1.71-.21,1.42-.29,2.14s-.05,1.42-.05,2.14l-.79.29c-.06-1-.19-2.54-2-2.54H78.63v14c0,2,.92,2.28,2.19,2.28h.5V228c-1,0-2.88-.1-4.3-.1-1.59,0-3.44.1-4.47.1v-.79h.5c1.46,0,2.2-.13,2.2-2.22V210.87Z"/><path class="cls-3" d="M81.33,228.1c-1,0-2.89-.1-4.31-.1-1.59,0-3.43.1-4.47.1h-.11v-1h.61c1.46,0,2-.05,2.08-2.1V211H70.91v-.23h4.45V225c0,2.12-.86,2.33-2.31,2.34h-.39v.56c1,0,2.83-.11,4.36-.11s3.14.1,4.19.11v-.56h-.39c-1.28,0-2.31-.32-2.31-2.4V210.75H83c1.77,0,2,1.51,2.06,2.5l.58-.21c0-.69,0-1.38.05-2.08s.17-1.35.27-2l-.4-.07c-.13.77-.87.81-1.53.8H70.22c-.62,0-1.29,0-1.53-.76h-.44A15.08,15.08,0,0,1,68.1,211c-.08.73-.2,1.42-.3,2.12h.57c.34-1.84.57-2.43,2.54-2.41V211c-2,0-1.91.37-2.34,2.32l0,.09h-1l0-.14c.1-.73.24-1.47.31-2.24a14.88,14.88,0,0,0,.17-2.22v-.12h.83l0,.08c.18.67.67.67,1.34.68H84c.73,0,1.27,0,1.31-.71v-.12l.12,0,.75.12,0,.11c-.1.71-.21,1.43-.29,2.13s-.05,1.42-.05,2.14v.08l-.07,0-.94.34v-.15c-.08-1-.18-2.44-1.85-2.44H78.74v13.94c0,2,.82,2.14,2.08,2.16h.62v1Z"/><path class="cls-3" d="M86.89,227.2h.38c.94,0,2-.13,2-1.51V211.85c0-1.38-1-1.51-2-1.51h-.38v-.79c1.61,0,4.36.1,6.58.1s5-.1,6.76-.1c0,1.13,0,2.88.06,4l-.8.21c-.12-1.72-.44-3.09-3.22-3.09H92.61v6.92h3.13c1.59,0,1.93-.89,2.09-2.32h.79c-.05,1-.08,2.06-.08,3.09s0,2,.08,3l-.79.16c-.16-1.58-.24-2.61-2.06-2.61H92.61v6.15c0,1.72,1.52,1.72,3.21,1.72,3.17,0,4.57-.21,5.37-3.22l.73.18c-.34,1.4-.65,2.8-.89,4.2-1.69,0-4.73-.1-7.1-.1s-5.53.1-7,.1Z"/><path class="cls-3" d="M100.93,227.88c.23-1.34.53-2.67.86-4l-.52-.14c-.8,3-2.33,3.22-5.45,3.2-1.66,0-3.33,0-3.33-1.83v-6.27h3.28c1.85,0,2,1.09,2.16,2.6l.57-.12c0-1-.07-1.95-.07-2.92s0-2,.07-3h-.57c-.15,1.38-.58,2.34-2.19,2.33H92.49V210.6h3.78c2.75,0,3.21,1.4,3.33,3.06l.57-.16c0-.74-.08-1.7-.08-2.58,0-.45,0-.88,0-1.26-1.8,0-4.48.11-6.65.11s-4.84-.1-6.46-.11v.56h.26c.94,0,2.06.17,2.07,1.63v13.84c0,1.46-1.13,1.62-2.07,1.63H87v.56c1.54,0,4.59-.11,6.91-.11s5.31.1,7,.11m.1.22c-1.7,0-4.74-.11-7.11-.11s-5.52.11-7,.11h-.11v-1h.49c1,0,1.82-.1,1.83-1.39V211.85c0-1.29-.88-1.38-1.83-1.39h-.49v-1h.11c1.62,0,4.37.11,6.58.11s5-.11,6.76-.11h.12v.13c0,.39,0,.86,0,1.36,0,.91,0,1.91.08,2.66v.1l-.09,0-.93.24v-.14c-.16-1.71-.39-3-3.11-3H92.71v6.69h3c1.53,0,1.8-.8,2-2.22v-.11h1v.12c0,1-.08,2.06-.08,3.09s0,2,.08,3v.09l-.1,0-.92.19v-.13c-.18-1.61-.2-2.49-2-2.51H92.71v6c0,1.6,1.39,1.6,3.11,1.6,3.18,0,4.46-.17,5.25-3.13l0-.11.11,0,.85.22,0,.11c-.35,1.39-.66,2.79-.9,4.19l0,.09Z"/><path class="cls-3" d="M108.87,218.47h1.29c2.65,0,4.07-1,4.07-4.12a3.6,3.6,0,0,0-3.86-3.85,11.91,11.91,0,0,0-1.5.11Zm-3.38-6.12c0-1.93-1.06-2-1.88-2h-.47v-.79c.84,0,2.48.1,4.09.1s2.86-.1,4.26-.1c3.32,0,6.29.9,6.29,4.65,0,2.38-1.59,3.83-3.68,4.65l4.52,6.76a2.93,2.93,0,0,0,2.56,1.59V228c-.87,0-1.72-.1-2.59-.1s-1.66.1-2.48.1a75,75,0,0,1-5.5-8.56h-1.74v5.65c0,2,.95,2.12,2.16,2.12h.48V228c-1.51,0-3-.1-4.54-.1-1.27,0-2.51.1-3.83.1v-.79h.47c1,0,1.88-.45,1.88-1.43Z"/><path class="cls-3" d="M110.16,218.36c2.62,0,3.94-.93,4-4a3.5,3.5,0,0,0-3.75-3.75,10.67,10.67,0,0,0-1.38.1v7.65Zm-1.29.23h-.11V210.5h.1a12.34,12.34,0,0,1,1.51-.1,3.73,3.73,0,0,1,4,4c0,3.16-1.52,4.23-4.19,4.23Zm0,.72h1.81l0,.06a82.48,82.48,0,0,0,5.4,8.51c.81,0,1.65-.11,2.48-.11s1.66.09,2.48.11v-.59a3,3,0,0,1-2.54-1.62l-4.6-6.87.13-.05c2.07-.82,3.6-2.23,3.6-4.55,0-3.67-2.85-4.52-6.17-4.54-1.39,0-2.66.11-4.26.11s-3.12-.1-4-.11v.56h.36c.82,0,2,.14,2,2.13v13.42c0,1.06-1,1.54-2,1.55h-.36v.56c1.27,0,2.48-.11,3.72-.11,1.47,0,3,.1,4.43.11v-.56H111c-1.2,0-2.27-.15-2.27-2.24v-5.77Zm12.31,8.79c-.88,0-1.72-.1-2.59-.1s-1.65.1-2.57.06a73.15,73.15,0,0,1-5.47-8.51H109v5.53c0,2,.82,2,2,2h.6v1h-.12c-1.51,0-3.05-.1-4.54-.1-1.26,0-2.51.1-3.83.1H103v-1h.59c1,0,1.76-.42,1.76-1.31V212.35c0-1.88-.94-1.87-1.76-1.89H103v-1h.12c.85,0,2.48.11,4.09.11s2.85-.11,4.26-.11c3.33,0,6.39.93,6.4,4.77,0,2.38-1.58,3.87-3.61,4.7l4.43,6.65a2.84,2.84,0,0,0,2.49,1.53l.09,0v1Z"/><path class="cls-3" d="M139.12,222.78l0-.05v-9.9a2.18,2.18,0,0,0-2.29-2.49h-.58v-.79c1.24,0,2.45.1,3.7.1,1.08,0,2.16-.1,3.25-.1v.79h-.4c-1.11,0-2.35.21-2.35,3.36v12a17.58,17.58,0,0,0,.16,2.67h-1L126,213.22v10.89c0,2.3.45,3.09,2.48,3.09H129V228c-1.13,0-2.27-.1-3.4-.1s-2.41.1-3.6.1v-.79h.37c1.82,0,2.38-1.25,2.38-3.35V212.72a2.37,2.37,0,0,0-2.4-2.38H122v-.79c1,0,2,.1,3,.1.79,0,1.56-.1,2.35-.1Z"/><path class="cls-3" d="M139.05,222.73h0l0,0Zm.06.05.09-.07Zm.54,5.49h.86a19,19,0,0,1-.14-2.55v-12c0-3.17,1.34-3.47,2.47-3.48h.28v-.56c-1,0-2.08.11-3.13.11-1.21,0-2.39-.1-3.59-.11v.56h.47a2.32,2.32,0,0,1,2.41,2.61l0,10-.05.06-.09.08-11.75-13.29c-.79,0-1.55.11-2.35.11-1,0-2-.1-2.93-.11v.56h.24a2.49,2.49,0,0,1,2.51,2.5v11.12c0,2.12-.6,3.47-2.49,3.48h-.26v.57c1.14,0,2.32-.11,3.48-.11s2.21.1,3.3.11v-.56h-.34c-2.07,0-2.59-.91-2.6-3.21V212.93Zm1,.23-1.09,0-13.41-14.94v10.59c0,2.3.38,2.95,2.37,3h.56v1H129c-1.14,0-2.28-.11-3.41-.11s-2.4.11-3.59.11h-.12v-1h.49c1.74,0,2.24-1.13,2.26-3.24V212.72a2.25,2.25,0,0,0-2.28-2.26h-.47v-1H122c1,0,2,.11,3,.11.78,0,1.54-.11,2.43-.07l11.61,13.07v-9.71c0-2.1-1.41-2.36-2.18-2.37h-.7v-1h.12c1.25,0,2.46.11,3.7.11,1.08,0,2.16-.11,3.25-.11h.11v1h-.51c-1.09,0-2.21.12-2.24,3.24v12a17.24,17.24,0,0,0,.16,2.65l0,.13Z"/><path class="cls-3" d="M151.34,212.51h-.05L148.84,220h4.93Zm-3.85,11.7a10.55,10.55,0,0,0-.59,2.06c0,.8,1.12.93,2,.93h.3V228c-1.06-.06-2.14-.1-3.2-.1s-1.9,0-2.85.1v-.79h.16a2.39,2.39,0,0,0,2.29-1.72l4.23-12.12a21.49,21.49,0,0,0,1-3.28,13.54,13.54,0,0,0,2.4-1.14.58.58,0,0,1,.21-.05.19.19,0,0,1,.19.08c.08.21.16.45.24.66l4.86,13.82c.32.92.63,1.9,1,2.69a1.69,1.69,0,0,0,1.75,1.06h.16V228c-1.19-.06-2.38-.1-3.64-.1s-2.62,0-4,.1v-.79h.29c.6,0,1.64-.11,1.64-.77a8.72,8.72,0,0,0-.53-1.9l-1-3.07h-6Z"/><path class="cls-3" d="M151.23,212.54l.06,0ZM149,219.87h4.63l-2.3-7.08Zm-.32.23,2.53-7.71h.14v.12h0v-.12h.08l2.51,7.71Zm5.4,7.77c1.31-.05,2.59-.1,3.86-.1s2.37,0,3.52.1v-.56h0a1.79,1.79,0,0,1-1.85-1.12c-.34-.8-.67-1.78-1-2.71l-4.86-13.82-.23-.63s0,0,0,0h0a.56.56,0,0,0-.15,0,9.66,9.66,0,0,1-2.35,1.05,22.19,22.19,0,0,1-1,3.3l-4.23,12.13a2.5,2.5,0,0,1-2.4,1.79h0v.56c.91-.05,1.82-.1,2.74-.1s2.06,0,3.07.1v-.56h-.17c-.86,0-2.06-.1-2.09-1a10.84,10.84,0,0,1,.58-2.09l.12,0-.12,0,.87-2.83h6.17l1.05,3.14a7.88,7.88,0,0,1,.54,1.94c0,.81-1.15.87-1.75.88h-.18Zm7.49.23c-1.18,0-2.38-.11-3.63-.11s-2.62.06-4,.11h-.13v-1h.41c.61,0,1.52-.14,1.52-.65a8.22,8.22,0,0,0-.52-1.86l-1-3h-5.82l-.83,2.67a11.6,11.6,0,0,0-.58,2c0,.65,1,.81,1.87.81h.41v1h-.12c-1.06,0-2.13-.11-3.19-.11s-1.9.06-2.84.11H143v-1h.28a2.27,2.27,0,0,0,2.18-1.64l4.23-12.13a31.71,31.71,0,0,0,1.05-3.34,13.52,13.52,0,0,0,2.4-1.14.83.83,0,0,1,.25-.06.36.36,0,0,1,.3.15c.07.22.15.46.23.67l4.87,13.82c.31.92.63,1.9,1,2.68a1.54,1.54,0,0,0,1.64,1h.27v1Z"/><path class="cls-3" d="M162.73,210.87c-2,0-2.06.48-2.46,2.4h-.79c.1-.74.24-1.48.32-2.24a16.63,16.63,0,0,0,.15-2.24h.64c.21.79.87.76,1.58.76h13.64c.71,0,1.37,0,1.42-.82l.63.11c-.1.71-.2,1.42-.28,2.14s-.06,1.42-.06,2.14l-.79.29c0-1-.18-2.54-1.95-2.54h-4.34v14c0,2,.93,2.28,2.19,2.28h.51V228c-1,0-2.88-.1-4.31-.1-1.58,0-3.43.1-4.46.1v-.79h.5c1.46,0,2.19-.13,2.19-2.22V210.87Z"/><path class="cls-3" d="M173.14,228.1c-1,0-2.89-.1-4.31-.1-1.58,0-3.43.1-4.46.1h-.12v-1h.62c1.46,0,2-.05,2.08-2.1V211h-4.21v-.23h4.45V225c0,2.12-.86,2.33-2.31,2.33h-.39v.57c1,0,2.82-.11,4.35-.11,1.38,0,3.15.1,4.19.11v-.57h-.39c-1.27,0-2.3-.31-2.3-2.39V210.75h4.45c1.77,0,2,1.51,2.05,2.5l.58-.21c0-.69,0-1.38.05-2.08s.17-1.35.27-2l-.4-.07c-.12.77-.86.82-1.52.8H162c-.62,0-1.3,0-1.54-.76h-.43a16.7,16.7,0,0,1-.16,2.14c-.07.73-.2,1.43-.3,2.12h.57c.34-1.84.57-2.44,2.55-2.41V211c-2,0-1.91.37-2.35,2.32v.09h-1l0-.13c.11-.74.24-1.48.32-2.25a14.88,14.88,0,0,0,.16-2.22v-.12h.84l0,.08c.18.67.66.67,1.34.68h13.77c.73,0,1.26,0,1.31-.71v-.12l.13,0,.75.12,0,.11c-.11.71-.21,1.43-.29,2.13s-.06,1.42-.06,2.14v.08l-.07,0-.94.34v-.15c-.07-1-.17-2.44-1.84-2.44h-4.22v13.94c0,2,.82,2.14,2.07,2.16h.62v1Z"/><path class="cls-3" d="M178.84,227.2h.37c.95,0,1.95-.13,1.95-1.51V211.85c0-1.38-1-1.51-1.95-1.51h-.37v-.79c1,0,2.61.1,3.91.1s2.91-.1,4.15-.1v.79h-.37c-1,0-2,.13-2,1.51v13.84c0,1.38,1,1.51,2,1.51h.37V228c-1.27,0-2.86-.1-4.18-.1s-2.85.1-3.88.1Z"/><path class="cls-3" d="M186.78,227.88v-.57h-.25c-.95,0-2.07-.16-2.07-1.62V211.85c0-1.46,1.12-1.62,2.07-1.63h.25v-.56c-1.22,0-2.75.11-4,.11s-2.77-.1-3.79-.11v.56h.25c.94,0,2.07.17,2.07,1.63v13.84c0,1.46-1.13,1.62-2.07,1.62H179v.57c1,0,2.51-.11,3.76-.11s2.81.1,4.06.11m.12.22c-1.28,0-2.86-.11-4.18-.11s-2.85.11-3.88.11h-.11v-1h.48c.95,0,1.83-.1,1.84-1.39V211.85c0-1.29-.89-1.38-1.84-1.39h-.48v-1h.11c1,0,2.62.11,3.91.11s2.9-.11,4.15-.11H187v1h-.48c-1,0-1.84.1-1.85,1.39v13.84c0,1.29.88,1.38,1.85,1.39H187v1Z"/><path class="cls-3" d="M197.83,227.22c5.13,0,6-4.52,6-8.37s-2.08-8.53-6.47-8.53c-4.62,0-6,4.12-6,7.65,0,4.73,2.16,9.25,6.44,9.25m-.4-18.07c5.64,0,10.12,3.49,10.12,9.12a9.68,9.68,0,0,1-10,10.12c-5.6,0-9.88-3.81-9.88-9.49a9.61,9.61,0,0,1,9.74-9.75"/><path class="cls-3" d="M191.27,218c0-3.55,1.4-7.77,6.11-7.77,4.49,0,6.58,4.77,6.59,8.65s-.92,8.48-6.14,8.48v-.22c5,0,5.9-4.41,5.91-8.26s-2.06-8.41-6.36-8.42c-4.53,0-5.87,4-5.88,7.54,0,4.71,2.15,9.13,6.33,9.14v.22c-4.38,0-6.55-4.6-6.56-9.36m-3.7.93a9.74,9.74,0,0,1,9.86-9.86v.23a9.49,9.49,0,0,0-9.63,9.63c0,5.62,4.22,9.37,9.77,9.37a9.57,9.57,0,0,0,9.87-10c0-5.56-4.42-9-10-9V209c5.68,0,10.23,3.53,10.24,9.23a9.82,9.82,0,0,1-10.1,10.23c-5.65,0-10-3.86-10-9.6"/><path class="cls-3" d="M225.36,222.78l0-.05v-9.9a2.18,2.18,0,0,0-2.3-2.49h-.58v-.79c1.24,0,2.46.1,3.7.1,1.08,0,2.17-.1,3.25-.1v.79h-.4c-1.1,0-2.35.21-2.35,3.36v12a17.58,17.58,0,0,0,.16,2.67h-1l-13.61-15.17v10.89c0,2.3.45,3.09,2.48,3.09h.45V228c-1.13,0-2.27-.1-3.4-.1s-2.41.1-3.6.1v-.79h.37c1.83,0,2.38-1.25,2.38-3.35V212.72a2.37,2.37,0,0,0-2.41-2.38h-.34v-.79c1,0,2,.1,3,.1.79,0,1.55-.1,2.35-.1Z"/><path class="cls-3" d="M225.3,222.73h0l0,0Zm.06.05.08-.07Zm.53,5.49h.86a19.09,19.09,0,0,1-.13-2.55v-12c0-3.18,1.33-3.47,2.46-3.48h.29v-.56c-1.05,0-2.09.11-3.15.11s-2.38-.1-3.58-.11v.56h.47a2.32,2.32,0,0,1,2.41,2.61l0,10-.05.06-.08.08L213.6,209.66c-.78,0-1.55.11-2.35.11-1,0-2-.1-2.93-.11v.56h.23a2.5,2.5,0,0,1,2.52,2.5v11.13c0,2.11-.59,3.46-2.49,3.47h-.26v.57c1.15,0,2.32-.11,3.49-.11s2.19.1,3.29.11v-.56h-.34c-2.08,0-2.6-.91-2.6-3.21V212.92Zm1,.23-1.09,0-13.41-14.94v10.59c0,2.3.38,2.94,2.37,3h.57v1h-.12c-1.14,0-2.27-.1-3.4-.1s-2.4.1-3.6.1h-.11v-1h.48c1.74,0,2.24-1.13,2.26-3.23V212.72a2.25,2.25,0,0,0-2.29-2.26h-.45v-1h.11c1,0,2,.11,3,.11.78,0,1.54-.11,2.44-.07l11.61,13.07v-9.71c0-2.1-1.42-2.36-2.19-2.37h-.7v-1h.12c1.25,0,2.46.11,3.69.11s2.16-.11,3.26-.11h.11v1h-.51c-1.09,0-2.21.12-2.23,3.24v12a17.28,17.28,0,0,0,.15,2.65l0,.13Z"/><path class="cls-3" d="M237.59,212.51h-.05L235.07,220h5Zm-3.87,11.7a11.74,11.74,0,0,0-.57,2.06c0,.8,1.11.93,2,.93h.29V228c-1.06-.06-2.14-.1-3.2-.1s-1.9,0-2.85.1v-.79h.15a2.39,2.39,0,0,0,2.3-1.72l4.24-12.12a21.43,21.43,0,0,0,1-3.28,13.67,13.67,0,0,0,2.41-1.14.5.5,0,0,1,.21-.05.17.17,0,0,1,.18.08l.24.66,4.86,13.82c.31.92.63,1.9,1,2.69a1.67,1.67,0,0,0,1.74,1.06h.16V228c-1.19-.06-2.38-.1-3.65-.1s-2.61,0-4,.1v-.79h.29c.61,0,1.64-.11,1.64-.77a8.72,8.72,0,0,0-.53-1.9l-1-3.07h-6Z"/><path class="cls-3" d="M237.48,212.54l.05,0Zm-2.25,7.33h4.62l-2.29-7.08Zm-.32.23,2.54-7.71h.14v.12h0v-.12h.08l2.5,7.71Zm5.4,7.77c1.31-.05,2.59-.1,3.85-.1s2.38,0,3.53.1v-.56h0a1.8,1.8,0,0,1-1.85-1.12c-.35-.8-.66-1.78-1-2.7L240,209.66c-.08-.21-.16-.44-.22-.63,0,0,0,0,0,0h0a.42.42,0,0,0-.15,0,10.34,10.34,0,0,1-2.36,1.05,22.19,22.19,0,0,1-1,3.3l-4.23,12.13a2.51,2.51,0,0,1-2.41,1.79h0v.56c.91-.05,1.82-.1,2.74-.1s2.07,0,3.08.1v-.56h-.17c-.86,0-2.07-.1-2.1-1a11.22,11.22,0,0,1,.59-2.09l.1,0-.1,0,.87-2.83h6.16l1.06,3.14a8.22,8.22,0,0,1,.53,1.94c0,.81-1.15.87-1.75.88h-.18Zm7.49.23c-1.19,0-2.38-.1-3.64-.1s-2.61.06-3.95.1h-.12v-1h.4c.61,0,1.52-.14,1.52-.65a8.22,8.22,0,0,0-.52-1.86l-1-3h-5.83l-.81,2.67a11,11,0,0,0-.58,2c0,.65,1,.81,1.87.81h.4v1h-.12c-1,0-2.14-.1-3.19-.1s-1.89.06-2.85.1h-.11v-1h.26a2.29,2.29,0,0,0,2.2-1.64l4.22-12.13A31.71,31.71,0,0,0,237,210a14.78,14.78,0,0,0,2.41-1.14.79.79,0,0,1,.25-.05.28.28,0,0,1,.28.15c.08.21.16.45.25.66L245,223.41c.31.92.63,1.9,1,2.69a1.55,1.55,0,0,0,1.64,1h.27v1Z"/><path class="cls-3" d="M254.47,225.4c0,1.06.73,1.37,1.58,1.48a19.55,19.55,0,0,0,3.49,0,3.75,3.75,0,0,0,2.53-1.43,6,6,0,0,0,.82-1.9h.77c-.29,1.5-.66,3-1,4.49-2.32,0-4.65-.1-7-.1s-4.65.1-7,.1v-.79h.37c1,0,2-.13,2-1.77V211.85c0-1.38-1-1.51-2-1.51h-.37v-.79c1.4,0,2.78.1,4.17.1s2.67-.1,4-.1v.79h-.66c-1,0-1.79,0-1.79,1.43Z"/><path class="cls-3" d="M262.58,227.88c.31-1.44.65-2.84.94-4.27H263a5.7,5.7,0,0,1-.81,1.86,3.88,3.88,0,0,1-2.61,1.47c-.7.07-1.38.11-2,.11s-1,0-1.49-.06c-.86-.09-1.69-.46-1.69-1.59V211.77c0-1.47.93-1.55,1.92-1.55h.54v-.56c-1.3,0-2.58.11-3.9.11s-2.7-.1-4.05-.11v.56h.25c.94,0,2.09.17,2.09,1.63v13.58c0,1.71-1.14,1.88-2.09,1.88h-.25v.57c2.28,0,4.56-.11,6.86-.11s4.59.1,6.87.11m.1.22c-2.33,0-4.66-.1-7-.1s-4.65.1-7,.1h-.11v-1h.48c1,0,1.86-.09,1.87-1.65V211.85c0-1.29-.91-1.38-1.87-1.39h-.48v-1h.11c1.4,0,2.78.11,4.17.11s2.66-.11,4-.11H257v1h-.77c-1,0-1.66,0-1.68,1.31V225.4c0,1,.65,1.25,1.47,1.37.47,0,1,0,1.47,0a19.55,19.55,0,0,0,2-.1,3.7,3.7,0,0,0,2.46-1.38,5.94,5.94,0,0,0,.8-1.87l0-.09h1l0,.14c-.3,1.51-.66,3-1,4.49l0,.09Z"/><path class="cls-3" d="M262.89,211.59h.33c.36,0,.52-.27.52-.71s-.25-.6-.54-.6h-.31Zm-.94,1.46v-.13c.34,0,.4,0,.4-.25v-2.06c0-.29,0-.39-.39-.37v-.15h1.43c.49,0,.94.24.94.74a.88.88,0,0,1-.66.84l.46.64a2.88,2.88,0,0,0,.61.66v.08h-.54c-.26,0-.49-.54-1-1.27h-.31v.92c0,.18.06.17.41.22v.13Zm1.38.79a2.26,2.26,0,1,0-2.2-2.25,2.24,2.24,0,0,0,2.2,2.25m0-5a2.78,2.78,0,1,1-2.78,2.79,2.74,2.74,0,0,1,2.78-2.79"/><path class="cls-1" d="M98.33,116.28A44.74,44.74,0,1,1,143.07,161,44.74,44.74,0,0,1,98.33,116.28Z"/><path class="cls-2" d="M143.13,161.82c-25.64.13-46.74-20.65-46.74-45.94,0-27.63,21.1-46.75,46.74-46.74h12c25.34,0,48.46,19.1,48.46,46.74,0,25.28-23.12,45.94-48.46,45.94ZM143.24,73a42.43,42.43,0,1,0,42.42,42.43A42.43,42.43,0,0,0,143.24,73Zm-9.63,67.52V90.31a26.86,26.86,0,0,0,0,50.18Zm36.52-25.09a26.92,26.92,0,0,0-17.27-25.1v50.2A26.93,26.93,0,0,0,170.13,115.4Z"/></svg>