<svg id="Layer_1" data-name="Layer 1" xmlns="http://www.w3.org/2000/svg" xmlns:xlink="http://www.w3.org/1999/xlink" viewBox="0 0 300 300"><defs><style>.cls-1{fill:#fff;}.cls-2{fill:url(#linear-gradient);}.cls-3{fill:url(#linear-gradient-2);}.cls-4{fill:url(#linear-gradient-3);}.cls-5{fill:url(#linear-gradient-4);}.cls-6{fill:url(#linear-gradient-5);}</style><linearGradient id="linear-gradient" x1="-2755.67" y1="342.53" x2="-2754.67" y2="342.53" gradientTransform="matrix(61.47, 0, 0, -61.47, 169579.96, 21213.78)" gradientUnits="userSpaceOnUse"><stop offset="0" stop-color="#007f49"/><stop offset="0.28" stop-color="#1f9248"/><stop offset="0.76" stop-color="#4fb047"/><stop offset="1" stop-color="#62bb46"/></linearGradient><linearGradient id="linear-gradient-2" x1="-2755.67" y1="342.54" x2="-2754.67" y2="342.54" gradientTransform="matrix(61.47, 0, 0, -61.47, 169583.84, 21205.06)" xlink:href="#linear-gradient"/><linearGradient id="linear-gradient-3" x1="-2755.67" y1="342.53" x2="-2754.67" y2="342.53" gradientTransform="matrix(61.47, 0, 0, -61.47, 169570.25, 21192.49)" xlink:href="#linear-gradient"/><linearGradient id="linear-gradient-4" x1="-2756.3" y1="342.53" x2="-2755.3" y2="342.53" gradientTransform="matrix(62.42, 0, 0, -62.42, 172100.87, 21529.34)" gradientUnits="userSpaceOnUse"><stop offset="0" stop-color="#337"/><stop offset="0.06" stop-color="#2f387c"/><stop offset="0.69" stop-color="#0d65ad"/><stop offset="1" stop-color="#0077c0"/></linearGradient><linearGradient id="linear-gradient-5" x1="-2755.1" y1="342.55" x2="-2754.1" y2="342.55" gradientTransform="matrix(60.62, 0, 0, -60.62, 167142.94, 20914.87)" gradientUnits="userSpaceOnUse"><stop offset="0" stop-color="#743237"/><stop offset="0.37" stop-color="#a6273e"/><stop offset="0.79" stop-color="#d91c44"/><stop offset="1" stop-color="#ed1847"/></linearGradient></defs><polygon class="cls-1" points="111.89 73.98 111.89 198.26 111.89 198.26 111.89 73.98 75.43 73.98 75.43 73.98 111.89 73.98"/><path class="cls-1" d="M261.85,199.92V65.29H59A34.78,34.78,0,0,0,38.15,97.17V234.71H227.06A34.8,34.8,0,0,0,261.85,199.92Zm-45.49-35.4a10.44,10.44,0,0,1-1.71.16H200.26V151.57h14.39a10.44,10.44,0,0,1,1.71.16,6.57,6.57,0,0,1,0,12.79Zm-1.64-32.34a5.89,5.89,0,0,1,5,5.94h0a5.9,5.9,0,0,1-5,5.94,11.57,11.57,0,0,1-1.42.11h-13v-12.1h13A9.87,9.87,0,0,1,214.72,132.18ZM180.65,74V198.26a24.85,24.85,0,0,1-24.85,24.85H119.34V165.72c6.3,5.4,17.19,8.78,34.89,8a113.39,113.39,0,0,0,19.51-3V160.21a48.94,48.94,0,0,1-18.82,5.49c-13.43,1-21.51-5.54-21.51-17.15s8.08-18.18,21.51-17.17a48.5,48.5,0,0,1,18.82,5.5V126.35a112.79,112.79,0,0,0-19.51-3c-17.7-.79-28.59,2.58-34.89,8V98.83A24.86,24.86,0,0,1,144.2,74Zm-68.76,0V198.26h0A24.85,24.85,0,0,1,87,223.11H50.58V170.73a106.8,106.8,0,0,0,25.51,3.08c23.76,0,30.68-9,30.68-20.32V124.65H85.4v28.84c0,7.06-4.73,12.3-13.32,12.3-7.33,0-14.53-2.2-21.5-5.57V98.83A24.85,24.85,0,0,1,75.43,74h36.46Zm137.53,0V198.26a24.85,24.85,0,0,1-24.85,24.85H188.11V172.44h38.55c9,0,15.81-4.86,15.81-12.43,0-7-6.17-11.43-14.24-12v-.28c7.3-1.07,11.32-5.84,11.32-11.42,0-7.09-5.87-11.18-13.83-11.58-.63,0-1.62-.09-2.44-.09H188.11V98.83A24.86,24.86,0,0,1,213,74h36.45Z"/><path class="cls-1" d="M216.36,151.73a10.44,10.44,0,0,0-1.71-.16H200.26v13.11h14.39a10.44,10.44,0,0,0,1.71-.16,6.57,6.57,0,0,0,0-12.79Z"/><path class="cls-2" d="M216.36,151.73a10.44,10.44,0,0,0-1.71-.16H200.26v13.11h14.39a10.44,10.44,0,0,0,1.71-.16,6.57,6.57,0,0,0,0-12.79Z"/><path class="cls-1" d="M188.11,98.83v25.82h35.17c.82,0,1.81,0,2.44.09,8,.4,13.83,4.49,13.83,11.58,0,5.58-4,10.35-11.32,11.42V148c8.07.56,14.24,5,14.24,12,0,7.57-6.77,12.43-15.81,12.43H188.11v50.67h36.46a24.85,24.85,0,0,0,24.85-24.85V74H213A24.86,24.86,0,0,0,188.11,98.83Z"/><path class="cls-3" d="M188.11,98.83v25.82h35.17c.82,0,1.81,0,2.44.09,8,.4,13.83,4.49,13.83,11.58,0,5.58-4,10.35-11.32,11.42V148c8.07.56,14.24,5,14.24,12,0,7.57-6.77,12.43-15.81,12.43H188.11v50.67h36.46a24.85,24.85,0,0,0,24.85-24.85V74H213A24.86,24.86,0,0,0,188.11,98.83Z"/><path class="cls-1" d="M200.26,144.17h13a11.57,11.57,0,0,0,1.42-.11,5.9,5.9,0,0,0,5-5.94h0a5.89,5.89,0,0,0-5-5.94,9.87,9.87,0,0,0-1.42-.11h-13Z"/><path class="cls-4" d="M200.26,144.17h13a11.57,11.57,0,0,0,1.42-.11,5.9,5.9,0,0,0,5-5.94h0a5.89,5.89,0,0,0-5-5.94,9.87,9.87,0,0,0-1.42-.11h-13Z"/><path class="cls-1" d="M111.89,74H75.43A24.85,24.85,0,0,0,50.58,98.83v61.39c7,3.37,14.17,5.57,21.5,5.57,8.59,0,13.32-5.24,13.32-12.3V124.65h21.37v28.84c0,11.28-6.92,20.32-30.68,20.32a106.8,106.8,0,0,1-25.51-3.08v52.38H87a24.85,24.85,0,0,0,24.86-24.85Z"/><path class="cls-5" d="M111.89,74H75.43A24.85,24.85,0,0,0,50.58,98.83v61.39c7,3.37,14.17,5.57,21.5,5.57,8.59,0,13.32-5.24,13.32-12.3V124.65h21.37v28.84c0,11.28-6.92,20.32-30.68,20.32a106.8,106.8,0,0,1-25.51-3.08v52.38H87a24.85,24.85,0,0,0,24.86-24.85Z"/><path class="cls-1" d="M119.34,98.83v32.54c6.3-5.4,17.19-8.77,34.89-8a112.79,112.79,0,0,1,19.51,3v10.53a48.5,48.5,0,0,0-18.82-5.5c-13.43-1-21.51,5.55-21.51,17.17s8.08,18.17,21.51,17.15a48.94,48.94,0,0,0,18.82-5.49v10.52a113.39,113.39,0,0,1-19.51,3c-17.7.8-28.59-2.58-34.89-8v57.39H155.8a24.85,24.85,0,0,0,24.85-24.85V74H144.2A24.86,24.86,0,0,0,119.34,98.83Z"/><path class="cls-6" d="M119.34,98.83v32.54c6.3-5.4,17.19-8.77,34.89-8a112.79,112.79,0,0,1,19.51,3v10.53a48.5,48.5,0,0,0-18.82-5.5c-13.43-1-21.51,5.55-21.51,17.17s8.08,18.17,21.51,17.15a48.94,48.94,0,0,0,18.82-5.49v10.52a113.39,113.39,0,0,1-19.51,3c-17.7.8-28.59-2.58-34.89-8v57.39H155.8a24.85,24.85,0,0,0,24.85-24.85V74H144.2A24.86,24.86,0,0,0,119.34,98.83Z"/></svg>