<svg id="Layer_1" data-name="Layer 1" xmlns="http://www.w3.org/2000/svg" viewBox="0 0 300 300"><defs><style>.cls-1{fill:#fff;}.cls-2{fill:#0079c1;}</style></defs><polygon class="cls-1" points="249.54 249.54 150.6 249.54 50.46 249.54 50.46 149.01 50.46 50.46 149.26 50.46 249.54 50.46 249.54 149.99 249.54 249.54 249.54 249.54"/><path class="cls-2" d="M249.54,249.54V218h-24l-12.36-13.68L200.73,218H121.54V154.27H96l31.71-71.75h30.57l10.91,24.58V82.52H207l6.57,18.53,6.61-18.53h29.34V50.46H50.46V249.54Zm-20-39.52h20l-26.42-28,26.42-27.7H229.89l-16.32,17.83L197.41,154.3h-20l26.26,27.86L177.44,210h19.42l16.39-18,16.32,18Zm4.67-28,15.3,16.28V165.88L234.24,182Zm-89,15.1v-8.67h31.44V175.87H145.2V167.2h32.23V154.3H130V210h47.43v-12.9Zm89.3-50.9h15V90.5h-23.4l-12.5,34.7L201.23,90.5h-23.8v55.72h15v-39l14.33,39h13.37l14.33-39.08v39.08Zm-74.18,0h17.11L152.84,90.5H133.26l-24.6,55.72h16.72L130,135.08h25.63l4.7,11.14Zm-9.95-23.64H135.25l7.56-18.23,7.56,18.23Z"/></svg>