<svg id="Layer_1" data-name="Layer 1" xmlns="http://www.w3.org/2000/svg" viewBox="0 0 300 300"><defs><style>.cls-1{fill:#fff;}.cls-2{fill:#f9b218;}.cls-3{fill:#253b7b;}</style></defs><rect class="cls-1" x="28.8" y="74.52" width="242.4" height="150.96"/><rect class="cls-2" x="28.8" y="203.75" width="242.4" height="21.73"/><rect class="cls-3" x="28.8" y="74.52" width="242.4" height="21.73"/><path class="cls-3" d="M125.83,120.2l-25,59.73H84.46L72.13,132.26c-.74-2.93-1.4-4-3.67-5.25-3.71-2-9.85-3.9-15.24-5.08l.36-1.73h26.3A7.21,7.21,0,0,1,87,126.28l6.51,34.57,16.07-40.65Zm64,40.23c.07-15.76-21.79-16.64-21.65-23.68,0-2.14,2.09-4.42,6.56-5A29.1,29.1,0,0,1,190,134.42l2.71-12.67a41.56,41.56,0,0,0-14.46-2.65c-15.28,0-26,8.12-26.11,19.75-.1,8.6,7.68,13.39,13.52,16.26,6,2.93,8.05,4.8,8,7.42,0,4-4.81,5.78-9.24,5.85a32.21,32.21,0,0,1-15.87-3.78l-2.81,13.1c3.62,1.65,10.28,3.09,17.18,3.17,16.24,0,26.86-8,26.91-20.44m40.34,19.5h14.29L232,120.2H218.8a7,7,0,0,0-6.59,4.38L189,179.93h16.23l3.22-8.92H228.3Zm-17.25-21.16,8.14-22.43,4.68,22.43Zm-65-38.57-12.78,59.73H119.68l12.78-59.73Z"/></svg>